<svg version="1.2" xmlns="http://www.w3.org/2000/svg" viewBox="0 0 51 52" width="51" height="52"><style>.a{opacity:.2}</style><path fill-rule="evenodd" class="a" d="m25.6 0.8c-13.9 0-25.2 11.3-25.2 25.2 0 13.9 11.3 25.2 25.2 25.2 13.9 0 25.2-11.3 25.2-25.2 0-13.9-11.3-25.2-25.2-25.2zm0 1.3c13.2 0 23.9 10.7 23.9 23.9 0 13.2-10.7 23.9-23.9 23.9-13.1 0-23.9-10.7-23.9-23.9 0-13.2 10.8-23.9 23.9-23.9z"/><path  d="m26.2 36.1l4.2-4.2c0.3-0.4 0.3-0.9 0-1.2-0.3-0.3-0.8-0.3-1.1 0l-2.9 3v-16.6c0-0.4-0.3-0.7-0.8-0.7-0.4 0-0.7 0.3-0.7 0.7v16.6l-2.9-3c-0.3-0.3-0.8-0.3-1.1 0q-0.3 0.3-0.3 0.6 0 0.3 0.3 0.6l4.2 4.2c0.3 0.3 0.8 0.3 1.1 0z"/></svg>